# xmcd
#
# Track frame offsets: 
#        150
#        20790
#        47462
#        67655
#        89820
#        108357
#        122565
#        145620
#        166720
#        191562
#
# Disc length: 2825 seconds
#
# Revision: 2
# Processed by: cddbd v1.5.1PL0 Copyright (c) Steve Scherf et al.
# Submitted via: ExactAudioCopy v0.95a5
#
DISCID=7c0b070a
DTITLE=陈淑桦 - 一生守候
DYEAR=1990
DGENRE=CPOP
TTITLE0=情关
TTITLE1=一生守候
TTITLE2=不要随便说BYE BYE
TTITLE3=秋日的午后
TTITLE4=紧紧拥抱朋友
TTITLE5=滚滚红尘
TTITLE6=东方的朋友
TTITLE7=红楼梦
TTITLE8=春去春又回
TTITLE9=东方月(演奏曲)
EXTD=
EXTT0=
EXTT1=
EXTT2=
EXTT3=
EXTT4=
EXTT5=
EXTT6=
EXTT7=
EXTT8=
EXTT9=
PLAYORDER=
